<?xml version="1.0" encoding="utf-8"?>
<!-- Generator: Adobe Illustrator 16.0.0, SVG Export Plug-In . SVG Version: 6.00 Build 0)  -->
<!DOCTYPE svg PUBLIC "-//W3C//DTD SVG 1.1//EN" "http://www.w3.org/Graphics/SVG/1.1/DTD/svg11.dtd">
<svg version="1.1" id="Layer_1" xmlns="http://www.w3.org/2000/svg" xmlns:xlink="http://www.w3.org/1999/xlink" x="0px" y="0px"
	 width="155.896px" height="115.478px" viewBox="7.09 32.353 155.896 115.478" enable-background="new 7.09 32.353 155.896 115.478"
	 xml:space="preserve">
<path fill="#013A65" d="M11.94,109.374c4.519,1.358,9.807-1.341,13.636-3.458c2.917-1.635,5.724-3.459,8.402-5.461
	c2.18,0.049,4.347-0.357,6.361-1.193c-3.417,6.688,3.732,14.221,11.684,7.505c4.451,1.761,12.061,0.584,13.811-5.28
	c0.899-0.318,1.769-0.714,2.599-1.184c-0.194,0.784-0.598,1.5-1.168,2.072c-0.864,0.625,0.977,1.718,1.574,1.621
	c2.428-0.393,5.488,0.033,7.361-1.125c0.45,0.507,1.117,0.766,1.792,0.695c2.898-1.137,5.629-0.639,8.293-3.076
	c0.668,1.245,4.997,1.744,6.311,1.836c-10.083,15.781-19.637,29.059-21.217,44.295c-0.637,6.119,19.468-11.801,25.851-35.078
	c11.273,4.825,46.951-5.92,58.67-9.719c-0.691,0.598-1.395,1.184-2.111,1.759c-0.837,0.671,1.141,2.156,1.855,1.64
	c2.594-1.812,5.004-3.873,7.194-6.156c0.75-0.801-1.556-2.054-2.264-1.717c-6.114,2.907-50.841,16.924-62.947,12.658
	c0.672-2.629,1.046-5.326,1.115-8.039c33.809-6.164,59.216-74.759,49.452-69.308c-22.681,12.659-36.881,40.288-54.488,67.927
	c-1.734,0.051-3.469-0.117-5.162-0.5c0.13-1.102,0.26-2.203,0.39-3.305c0.087-0.744-1.76-2.051-2.21-1.216
	c-2.426,4.491-4.38,4.888-7.527,5.571c0.241-1.15,0.31-2.407,0.546-3.315c0.19-0.733-1.734-1.934-2.121-1.168
	c-2.398,4.753-2.898,5.175-7.443,5.396c0.054-0.148,1.333-3.829,1.492-4.333c0.221-0.701-1.436-1.73-1.992-1.293
	c-1.137,0.918-2.361,1.726-3.653,2.41c-0.166-0.941-1.063-1.569-2.004-1.403c-0.043,0.008-0.086,0.017-0.129,0.028
	c-1.466,0.16-2.037,2.412-2.381,3.588c-0.132,0.46,0.326,0.936,0.877,1.219c-1.811,2.428-5.054,3.369-8.354,3.072l2.757-4.307
	c0.504-0.863-1.557-2.169-2.2-1.428c-1.896,2.184-2.878,5.322-7.119,7.302c-5.843,2.73-7.824-3.989-2.518-10.05
	c1.938-1.229,3.702-2.713,5.246-4.409c0.534-0.587-1.172-1.639-1.723-1.307c-2.303,1.409-4.376,3.163-6.148,5.2
	c-1.961,1.265-4.136,2.161-6.418,2.646c13.583-10.518,16.084-13.842,20.741-25.633c1.869-4.733,3.721-10.145,3.222-15.305
	c-0.211-4.27-3.755-7.61-8.029-7.571c-7.639-0.228-22.924,25.609-26.246,36.687c-2.053,6.848,0.451,11.045,5.421,12.75
	c-8.295,5.953-22.093,13.475-22.798,3.25c-0.174-2.524,1.776-4.744,3.319-6.514c0.223-0.256-0.541-0.779-0.789-0.515
	C4.236,102.891,7.549,108.054,11.94,109.374z M95.904,108.491c-0.222-1.204-0.052-2.447,0.485-3.548
	C96.284,106.139,96.122,107.32,95.904,108.491z M74.069,144.405c2.285-12.036,9.471-23.161,19.333-38.261
	c-0.149,1.732,0.642,3.414,2.073,4.403c-2.574,10.993-10.637,25.083-21.403,33.858L74.069,144.405z M147.456,36.212
	c-3.793,19.787-26.061,58.794-49.371,63.839c-0.155-0.131-0.328-0.238-0.514-0.321c14.021-21.822,29.324-50.337,49.887-63.517
	L147.456,36.212z M27.582,95.387c-3.938-6.84,17.539-42.041,24.959-43.077c9.368-1.308,4.47,18.059-3.442,30.916
	c-2.048,3.327-5.146,5.955-8.036,8.532c-2.807,2.502-5.729,4.96-8.786,7.234c-2.019-0.452-3.735-1.771-4.693-3.604L27.582,95.387z"
	/>
</svg>
